<svg width="24" height="25" viewBox="0 0 24 25" fill="none" xmlns="http://www.w3.org/2000/svg">
<g clip-path="url(#clip0_444_1967)">
<path d="M12 22.0193C10.0716 22.0193 8.18657 21.4475 6.58319 20.3761C4.97982 19.3048 3.73013 17.782 2.99218 16.0005C2.25422 14.2189 2.06114 12.2585 2.43735 10.3672C2.81355 8.47585 3.74215 6.73856 5.10571 5.375C6.46928 4.01144 8.20656 3.08284 10.0979 2.70664C11.9892 2.33043 13.9496 2.52351 15.7312 3.26147C17.5127 3.99942 19.0355 5.2491 20.1068 6.85248C21.1782 8.45586 21.75 10.3409 21.75 12.2693C21.75 14.8552 20.7228 17.3351 18.8943 19.1636C17.0658 20.9921 14.5859 22.0193 12 22.0193ZM12 4.01929C10.3683 4.01929 8.77326 4.50315 7.41655 5.40967C6.05984 6.31619 5.00242 7.60466 4.378 9.11215C3.75358 10.6196 3.5902 12.2784 3.90853 13.8788C4.22685 15.4791 5.01259 16.9491 6.16637 18.1029C7.32016 19.2567 8.79017 20.0424 10.3905 20.3608C11.9909 20.6791 13.6497 20.5157 15.1571 19.8913C16.6646 19.2669 17.9531 18.2095 18.8596 16.8527C19.7661 15.496 20.25 13.901 20.25 12.2693C20.25 10.0813 19.3808 7.98284 17.8336 6.43566C16.2865 4.88849 14.188 4.01929 12 4.01929Z" fill="white"/>
<path d="M12 17.5193C11.8011 17.5193 11.6103 17.4403 11.4697 17.2996C11.329 17.159 11.25 16.9682 11.25 16.7693V7.76929C11.25 7.57037 11.329 7.37961 11.4697 7.23896C11.6103 7.0983 11.8011 7.01929 12 7.01929C12.1989 7.01929 12.3897 7.0983 12.5303 7.23896C12.671 7.37961 12.75 7.57037 12.75 7.76929V16.7693C12.75 16.9682 12.671 17.159 12.5303 17.2996C12.3897 17.4403 12.1989 17.5193 12 17.5193Z" fill="white"/>
<path d="M16.5 13.0193H7.5C7.30109 13.0193 7.11032 12.9403 6.96967 12.7996C6.82902 12.659 6.75 12.4682 6.75 12.2693C6.75 12.0704 6.82902 11.8796 6.96967 11.739C7.11032 11.5983 7.30109 11.5193 7.5 11.5193H16.5C16.6989 11.5193 16.8897 11.5983 17.0303 11.739C17.171 11.8796 17.25 12.0704 17.25 12.2693C17.25 12.4682 17.171 12.659 17.0303 12.7996C16.8897 12.9403 16.6989 13.0193 16.5 13.0193Z" fill="white"/>
</g>
<defs>
<clipPath id="clip0_444_1967">
<rect width="24" height="24" fill="white" transform="translate(0 0.269287)"/>
</clipPath>
</defs>
</svg>
