<svg width="21" height="21" viewBox="0 0 21 21" fill="none" xmlns="http://www.w3.org/2000/svg">
<path d="M2.625 9.66675V9.66675C2.625 9.88178 2.625 9.98929 2.63229 10.08C2.72143 11.1894 3.60232 12.0703 4.71176 12.1595C4.80246 12.1667 4.90997 12.1667 5.125 12.1667H5.8544C6.18106 12.1667 6.34439 12.1667 6.48841 12.2053C6.75098 12.2755 6.9796 12.4377 7.13264 12.6623C7.21658 12.7856 7.27054 12.9397 7.37845 13.248L7.4375 13.4167C7.60238 13.8878 7.68482 14.1234 7.83842 14.2932C7.94972 14.4163 8.08667 14.5135 8.23962 14.5779C8.45069 14.6667 8.70025 14.6667 9.19935 14.6667H11.8006C12.2998 14.6667 12.5493 14.6667 12.7604 14.5779C12.9133 14.5135 13.0503 14.4163 13.1616 14.2932C13.3152 14.1234 13.3976 13.8878 13.5625 13.4167L13.6216 13.248C13.7295 12.9397 13.7834 12.7856 13.8674 12.6623C14.0204 12.4377 14.249 12.2755 14.5116 12.2053C14.6556 12.1667 14.8189 12.1667 15.1456 12.1667H15.875C16.09 12.1667 16.1975 12.1667 16.2882 12.1595C17.3977 12.0703 18.2786 11.1894 18.3677 10.08C18.375 9.98929 18.375 9.88178 18.375 9.66675V9.66675" stroke="#B2B9CB" stroke-width="2.26844"/>
<path d="M7 8L10.5 10.5M10.5 10.5L14 8M10.5 10.5L10.5 2.16667" stroke="#B2B9CB" stroke-width="2.26844"/>
<path d="M14 4.66663V4.66663C15.9817 4.66663 16.9725 4.66663 17.6182 5.2437C17.6814 5.3002 17.7414 5.36019 17.7979 5.42341C18.375 6.06909 18.375 7.05993 18.375 9.04163V13.4631C18.375 15.6018 18.375 16.6711 17.7106 17.3355C17.0462 18 15.9768 18 13.8381 18H7.16188C5.02317 18 3.95382 18 3.28941 17.3355C2.625 16.6711 2.625 15.6018 2.625 13.4631V9.04162C2.625 7.05993 2.625 6.06909 3.20208 5.42341C3.25857 5.36019 3.31857 5.3002 3.38178 5.2437C4.02746 4.66663 5.01831 4.66663 7 4.66663V4.66663" stroke="#B2B9CB" stroke-width="2.26844"/>
</svg>
