<svg width="81" height="75" viewBox="0 0 81 75" fill="none" xmlns="http://www.w3.org/2000/svg">
<path d="M65.0594 29.6213V20.8272C65.0594 19.5643 65.0594 18.9329 64.8137 18.4506C64.5975 18.0263 64.2525 17.6813 63.8282 17.4651C63.3459 17.2194 62.7145 17.2194 61.4516 17.2194H18.6367C17.3738 17.2194 16.7424 17.2194 16.26 17.4651C15.8357 17.6813 15.4908 18.0263 15.2746 18.4506C15.0288 18.9329 15.0288 19.5643 15.0288 20.8272V29.6213M65.0594 29.6213V57.0184C65.0594 58.2812 65.0594 58.9127 64.8137 59.395C64.5975 59.8193 64.2525 60.1643 63.8282 60.3805C63.3459 60.6262 62.7145 60.6262 61.4516 60.6262H18.6366C17.3738 60.6262 16.7424 60.6262 16.26 60.3805C15.8357 60.1643 15.4908 59.8193 15.2746 59.395C15.0288 58.9127 15.0288 58.2812 15.0288 57.0184V29.6213M65.0594 29.6213H15.0288" stroke="#222222" stroke-width="1.12745"/>
<path d="M28.3706 11.0183L28.3706 23.4203M51.7182 11.0183L51.7182 23.4203" stroke="#222222" stroke-width="1.12745" stroke-linecap="round"/>
<path d="M40.0439 52.875L40.0439 37.3725" stroke="#222222" stroke-width="1.12745" stroke-linecap="round"/>
<path d="M48.3828 45.1238L31.7059 45.1238" stroke="#222222" stroke-width="1.12745" stroke-linecap="round"/>
</svg>
