<svg width="27" height="27" viewBox="0 0 27 27" fill="none" xmlns="http://www.w3.org/2000/svg">
<g clip-path="url(#clip0_224_345)">
<path d="M13.5 8.22656C12.457 8.22656 11.4375 8.53584 10.5702 9.1153C9.70303 9.69475 9.02712 10.5183 8.62798 11.4819C8.22885 12.4455 8.12442 13.5059 8.32789 14.5288C8.53137 15.5517 9.03362 16.4914 9.77112 17.2289C10.5086 17.9664 11.4483 18.4686 12.4712 18.6721C13.4942 18.8756 14.5545 18.7712 15.5181 18.372C16.4817 17.9729 17.3053 17.297 17.8847 16.4298C18.4642 15.5626 18.7734 14.543 18.7734 13.5C18.7734 12.1014 18.2178 10.7601 17.2289 9.77112C16.2399 8.78216 14.8986 8.22656 13.5 8.22656ZM13.5 17.5078C12.7073 17.5078 11.9325 17.2728 11.2734 16.8324C10.6143 16.392 10.1006 15.7661 9.79727 15.0337C9.49392 14.3014 9.41456 13.4956 9.5692 12.7181C9.72384 11.9407 10.1055 11.2266 10.6661 10.666C11.2266 10.1055 11.9407 9.72384 12.7181 9.5692C13.4956 9.41455 14.3014 9.49392 15.0337 9.79726C15.7661 10.1006 16.392 10.6143 16.8324 11.2734C17.2728 11.9325 17.5078 12.7073 17.5078 13.5C17.5078 14.5629 17.0856 15.5823 16.334 16.334C15.5823 17.0856 14.5629 17.5078 13.5 17.5078Z" fill="#555555" fill-opacity="0.81"/>
<path d="M25.5234 10.125H23.6398C23.5959 10.1247 23.5532 10.1107 23.5177 10.085C23.4822 10.0593 23.4555 10.0231 23.4415 9.98156C23.3189 9.63339 23.1781 9.2919 23.0196 8.95852C22.9998 8.91918 22.9929 8.87463 22.9997 8.83113C23.0065 8.78763 23.0267 8.74735 23.0576 8.71594L24.3886 7.38281C24.5257 7.2457 24.6345 7.08292 24.7087 6.90376C24.7829 6.72461 24.8211 6.53259 24.8211 6.33867C24.8211 6.14475 24.7829 5.95274 24.7087 5.77358C24.6345 5.59443 24.5257 5.43164 24.3886 5.29453L21.7034 2.61141C21.5662 2.47428 21.4035 2.3655 21.2243 2.29129C21.0452 2.21708 20.8531 2.17888 20.6592 2.17888C20.4653 2.17888 20.2733 2.21708 20.0941 2.29129C19.915 2.3655 19.7522 2.47428 19.6151 2.61141L18.2841 3.94242C18.2526 3.97328 18.2124 3.99353 18.1689 4.00034C18.1254 4.00715 18.0808 4.00017 18.0415 3.98039C17.7081 3.82187 17.3666 3.68105 17.0184 3.55852C16.9769 3.54448 16.9407 3.51784 16.915 3.4823C16.8893 3.44676 16.8753 3.4041 16.875 3.36023V1.47656C16.875 1.08495 16.7194 0.709384 16.4425 0.432475C16.1656 0.155566 15.79 0 15.3984 0H11.6016C11.21 0 10.8344 0.155566 10.5575 0.432475C10.2806 0.709384 10.125 1.08495 10.125 1.47656V3.36023C10.1247 3.4041 10.1107 3.44676 10.085 3.4823C10.0593 3.51784 10.0231 3.54448 9.98156 3.55852C9.63339 3.6811 9.2919 3.82192 8.95852 3.98039C8.91918 4.00017 8.87463 4.00715 8.83113 4.00034C8.78763 3.99353 8.74735 3.97328 8.71594 3.94242L7.38281 2.61141C7.2457 2.47428 7.08292 2.3655 6.90376 2.29129C6.72461 2.21708 6.53259 2.17888 6.33867 2.17888C6.14475 2.17888 5.95274 2.21708 5.77358 2.29129C5.59443 2.3655 5.43164 2.47428 5.29453 2.61141L2.61141 5.29664C2.47428 5.43375 2.3655 5.59654 2.29129 5.77569C2.21708 5.95484 2.17888 6.14686 2.17888 6.34078C2.17888 6.5347 2.21708 6.72672 2.29129 6.90587C2.3655 7.08503 2.47428 7.24781 2.61141 7.38492L3.94242 8.71594C3.97328 8.74735 3.99353 8.78763 4.00034 8.83113C4.00715 8.87463 4.00017 8.91918 3.98039 8.95852C3.82187 9.29188 3.68105 9.63337 3.55852 9.98156C3.54448 10.0231 3.51784 10.0593 3.4823 10.085C3.44676 10.1107 3.4041 10.1247 3.36023 10.125H1.47656C1.08495 10.125 0.709384 10.2806 0.432475 10.5575C0.155566 10.8344 0 11.21 0 11.6016L0 15.3984C0 15.79 0.155566 16.1656 0.432475 16.4425C0.709384 16.7194 1.08495 16.875 1.47656 16.875H3.36023C3.4041 16.8753 3.44676 16.8893 3.4823 16.915C3.51784 16.9407 3.54448 16.9769 3.55852 17.0184C3.6811 17.3666 3.82192 17.7081 3.98039 18.0415C4.00017 18.0808 4.00715 18.1254 4.00034 18.1689C3.99353 18.2124 3.97328 18.2526 3.94242 18.2841L2.61141 19.6172C2.47428 19.7543 2.3655 19.9171 2.29129 20.0962C2.21708 20.2754 2.17888 20.4674 2.17888 20.6613C2.17888 20.8552 2.21708 21.0473 2.29129 21.2264C2.3655 21.4056 2.47428 21.5684 2.61141 21.7055L5.29664 24.3907C5.43375 24.5278 5.59654 24.6366 5.77569 24.7108C5.95484 24.785 6.14686 24.8232 6.34078 24.8232C6.5347 24.8232 6.72672 24.785 6.90587 24.7108C7.08503 24.6366 7.24781 24.5278 7.38492 24.3907L8.71594 23.0597C8.74735 23.0288 8.78763 23.0086 8.83113 23.0018C8.87463 22.995 8.91918 23.0019 8.95852 23.0217C9.29188 23.1802 9.63337 23.3211 9.98156 23.4436C10.0231 23.4576 10.0593 23.4843 10.085 23.5198C10.1107 23.5553 10.1247 23.598 10.125 23.6419V25.5234C10.125 25.915 10.2806 26.2906 10.5575 26.5675C10.8344 26.8444 11.21 27 11.6016 27H15.3984C15.79 27 16.1656 26.8444 16.4425 26.5675C16.7194 26.2906 16.875 25.915 16.875 25.5234V23.6398C16.8753 23.5959 16.8893 23.5532 16.915 23.5177C16.9407 23.4822 16.9769 23.4555 17.0184 23.4415C17.3666 23.3189 17.7081 23.1781 18.0415 23.0196C18.0808 22.9998 18.1254 22.9929 18.1689 22.9997C18.2124 23.0065 18.2526 23.0267 18.2841 23.0576L19.6172 24.3886C19.7543 24.5257 19.9171 24.6345 20.0962 24.7087C20.2754 24.7829 20.4674 24.8211 20.6613 24.8211C20.8552 24.8211 21.0473 24.7829 21.2264 24.7087C21.4056 24.6345 21.5684 24.5257 21.7055 24.3886L24.3907 21.7034C24.5278 21.5662 24.6366 21.4035 24.7108 21.2243C24.785 21.0452 24.8232 20.8531 24.8232 20.6592C24.8232 20.4653 24.785 20.2733 24.7108 20.0941C24.6366 19.915 24.5278 19.7522 24.3907 19.6151L23.0597 18.2841C23.0288 18.2526 23.0086 18.2124 23.0018 18.1689C22.995 18.1254 23.0019 18.0808 23.0217 18.0415C23.1802 17.7081 23.3211 17.3666 23.4436 17.0184C23.4576 16.9769 23.4843 16.9407 23.5198 16.915C23.5553 16.8893 23.598 16.8753 23.6419 16.875H25.5234C25.915 16.875 26.2906 16.7194 26.5675 16.4425C26.8444 16.1656 27 15.79 27 15.3984V11.6016C27 11.21 26.8444 10.8344 26.5675 10.5575C26.2906 10.2806 25.915 10.125 25.5234 10.125ZM25.7344 15.3984C25.7344 15.4544 25.7122 15.508 25.6726 15.5476C25.633 15.5872 25.5794 15.6094 25.5234 15.6094H23.6398C23.3338 15.6097 23.0355 15.7051 22.7861 15.8823C22.5367 16.0595 22.3485 16.3099 22.2476 16.5987C22.1396 16.9045 22.0157 17.2044 21.8763 17.4973C21.7427 17.7733 21.6983 18.0841 21.7493 18.3865C21.8003 18.6889 21.9443 18.9679 22.1611 19.1848L23.4921 20.5158C23.5314 20.5553 23.5534 20.6088 23.5534 20.6645C23.5534 20.7202 23.5314 20.7737 23.4921 20.8132L20.809 23.4942C20.7695 23.5335 20.716 23.5556 20.6603 23.5556C20.6045 23.5556 20.5511 23.5335 20.5116 23.4942L19.1805 22.1632C18.9637 21.9464 18.6847 21.8024 18.3823 21.7514C18.0799 21.7004 17.7691 21.7448 17.493 21.8784C17.1995 22.0179 16.8989 22.1418 16.5923 22.2497C16.3039 22.351 16.0541 22.5393 15.8772 22.7887C15.7004 23.0381 15.6053 23.3362 15.6052 23.6419V25.5234C15.6052 25.5794 15.5829 25.633 15.5434 25.6726C15.5038 25.7122 15.4502 25.7344 15.3942 25.7344H11.6016C11.5456 25.7344 11.492 25.7122 11.4524 25.6726C11.4128 25.633 11.3906 25.5794 11.3906 25.5234V23.6398C11.3903 23.3338 11.2949 23.0355 11.1177 22.7861C10.9405 22.5367 10.6901 22.3485 10.4013 22.2476C10.0955 22.1396 9.79556 22.0157 9.50273 21.8763C9.22671 21.7427 8.91593 21.6983 8.61352 21.7493C8.31112 21.8003 8.03211 21.9443 7.81523 22.1611L6.48422 23.4921C6.4447 23.5314 6.39123 23.5534 6.33551 23.5534C6.27978 23.5534 6.22632 23.5314 6.1868 23.4921L3.50578 20.809C3.46649 20.7695 3.44444 20.716 3.44444 20.6603C3.44444 20.6045 3.46649 20.5511 3.50578 20.5116L4.8368 19.1805C5.05363 18.9637 5.19755 18.6847 5.24858 18.3823C5.29961 18.0799 5.25522 17.7691 5.12156 17.493C4.98209 17.1995 4.85817 16.8989 4.75031 16.5923C4.64841 16.3051 4.4601 16.0563 4.21121 15.8803C3.96232 15.7043 3.66506 15.6097 3.36023 15.6094H1.47656C1.42062 15.6094 1.36697 15.5872 1.32741 15.5476C1.28785 15.508 1.26562 15.4544 1.26562 15.3984V11.6016C1.26562 11.5456 1.28785 11.492 1.32741 11.4524C1.36697 11.4128 1.42062 11.3906 1.47656 11.3906H3.36023C3.66619 11.3903 3.96448 11.2949 4.21387 11.1177C4.46327 10.9405 4.65146 10.6901 4.75242 10.4013C4.86035 10.0955 4.98427 9.79556 5.12367 9.50273C5.25733 9.22671 5.30172 8.91593 5.25069 8.61352C5.19966 8.31112 5.05574 8.03211 4.83891 7.81523L3.50789 6.48422C3.4686 6.4447 3.44655 6.39123 3.44655 6.33551C3.44655 6.27978 3.4686 6.22632 3.50789 6.1868L6.19102 3.50578C6.23054 3.46649 6.284 3.44444 6.33973 3.44444C6.39545 3.44444 6.44892 3.46649 6.48844 3.50578L7.81945 4.8368C8.03633 5.05363 8.31534 5.19755 8.61774 5.24858C8.92014 5.29961 9.23093 5.25522 9.50695 5.12156C9.80046 4.98209 10.1011 4.85817 10.4077 4.75031C10.6949 4.64841 10.9437 4.4601 11.1197 4.21121C11.2957 3.96232 11.3903 3.66506 11.3906 3.36023V1.47656C11.3906 1.42062 11.4128 1.36697 11.4524 1.32741C11.492 1.28785 11.5456 1.26562 11.6016 1.26562H15.3984C15.4544 1.26562 15.508 1.28785 15.5476 1.32741C15.5872 1.36697 15.6094 1.42062 15.6094 1.47656V3.36023C15.6097 3.66619 15.7051 3.96448 15.8823 4.21387C16.0595 4.46327 16.3099 4.65146 16.5987 4.75242C16.9045 4.86035 17.2044 4.98427 17.4973 5.12367C17.7733 5.25733 18.0841 5.30172 18.3865 5.25069C18.6889 5.19966 18.9679 5.05574 19.1848 4.83891L20.5158 3.50789C20.5553 3.4686 20.6088 3.44655 20.6645 3.44655C20.7202 3.44655 20.7737 3.4686 20.8132 3.50789L23.4984 6.19313C23.5377 6.23265 23.5598 6.28611 23.5598 6.34184C23.5598 6.39756 23.5377 6.45103 23.4984 6.49055L22.1674 7.82156C21.9506 8.03844 21.8067 8.31745 21.7556 8.61985C21.7046 8.92225 21.749 9.23304 21.8827 9.50906C22.0221 9.80257 22.1461 10.1032 22.2539 10.4098C22.3552 10.6982 22.5436 10.948 22.7929 11.1249C23.0423 11.3017 23.3404 11.3968 23.6461 11.397H25.5234C25.5794 11.397 25.633 11.4192 25.6726 11.4587C25.7122 11.4983 25.7344 11.5519 25.7344 11.6079V15.3984Z" fill="#555555" fill-opacity="0.81"/>
</g>
<defs>
<clipPath id="clip0_224_345">
<rect width="27" height="27" fill="white"/>
</clipPath>
</defs>
</svg>
