<svg width="65" height="65" viewBox="0 0 65 65" fill="none" xmlns="http://www.w3.org/2000/svg">
<path d="M51.0245 17.225L38.4037 18.9583C37.6454 19.0667 37.3745 19.9875 37.9704 20.475L41.8704 23.725C42.2495 24.05 42.2495 24.5917 41.9787 24.9167L34.287 34.0708C33.962 34.3958 33.4745 34.5042 33.0954 34.1792L28.3287 30.4958L26.9204 29.4125C26.5412 29.1417 25.9995 29.25 25.7287 29.575L24.6995 30.8208L12.512 46.3667C12.2412 46.6917 12.2954 47.1792 12.5662 47.5042C12.8912 47.8292 13.3787 47.8292 13.7579 47.5583L26.2704 36.6708C26.5954 36.4 27.0287 36.4 27.3537 36.6167L32.5537 40.625L33.962 41.7083C34.3412 41.9792 34.8287 41.925 35.1537 41.6L36.2912 40.1917L46.1495 28.3292C46.4745 27.95 47.0162 27.95 47.3412 28.2208L51.2412 31.4708C51.837 31.9583 52.7037 31.525 52.6495 30.7667L52.0537 18.0375C51.9995 17.55 51.512 17.1708 51.0245 17.225Z" fill="#2A8995"/>
</svg>
