<svg width="65" height="55" viewBox="0 0 65 55" fill="none" xmlns="http://www.w3.org/2000/svg">
<g opacity="0.8">
<path d="M54.0042 36.7125L41.275 37.3542C40.5167 37.4 40.0833 36.6667 40.5708 36.1625L43.7667 32.8167C44.0917 32.4959 43.9833 32.0375 43.6583 31.8084L34.2875 25.4834C33.9083 25.2542 33.4208 25.2542 33.0958 25.575L29.1417 29.425L27.95 30.5709C27.625 30.8917 27.0833 30.8917 26.7583 30.6625L25.5125 29.7917L10.5083 18.8834C10.1833 18.6542 10.1292 18.2417 10.3458 17.9209C10.6167 17.6 11.1042 17.5084 11.4833 17.6917L25.8917 24.6584C26.2708 24.8417 26.7042 24.75 26.975 24.5209L31.3083 20.35L32.5 19.2042C32.825 18.9292 33.3125 18.8834 33.6917 19.1125L35.1 20.075L47.0708 28.2792C47.45 28.5542 47.9917 28.4625 48.2625 28.1875L51.4583 24.8417C51.9458 24.3375 52.8667 24.5667 52.975 25.2084L54.8708 35.8875C54.8708 36.3 54.4917 36.7125 54.0042 36.7125Z" fill="#75DCEA"/>
</g>
</svg>
