<svg width="63" height="56" viewBox="0 0 63 56" fill="none" xmlns="http://www.w3.org/2000/svg">
<path d="M50.8437 8.21004C50.5137 8.20988 50.186 8.25979 49.8748 8.35764V7.34683C49.8749 6.9325 49.7634 6.5242 49.5497 6.15622C49.3359 5.78823 49.0262 5.47131 48.6465 5.23207C48.2668 4.99282 47.8282 4.83824 47.3676 4.78129C46.9069 4.72435 46.4377 4.76671 45.9992 4.90482V4.75722C45.9992 4.07041 45.693 3.41173 45.1479 2.92608C44.6027 2.44044 43.8634 2.1676 43.0925 2.1676C42.3216 2.1676 41.5823 2.44044 41.0372 2.92608C40.492 3.41173 40.1858 4.07041 40.1858 4.75722V4.90482C39.7473 4.76671 39.2781 4.72435 38.8174 4.78129C38.3568 4.83824 37.9182 4.99282 37.5385 5.23207C37.1588 5.47131 36.8491 5.78823 36.6353 6.15622C36.4216 6.5242 36.3101 6.9325 36.3102 7.34683V13.5369C35.8717 13.3988 35.4025 13.3564 34.9418 13.4133C34.4811 13.4703 34.0426 13.6249 33.6629 13.8641C33.2832 14.1034 32.9734 14.4203 32.7597 14.7883C32.546 15.1562 32.4345 15.5645 32.4346 15.9789V25.4741C32.4346 25.6308 32.4825 25.7844 32.5731 25.9187L35.3413 30.0293V32.5386C34.7749 32.7144 34.284 33.0428 33.9366 33.4784C33.5892 33.914 33.4026 34.4351 33.4026 34.9694C33.4026 35.5037 33.5892 36.0248 33.9366 36.4604C34.284 36.8959 34.7749 37.2244 35.3413 37.4002V53.0967C35.3413 53.3256 35.4434 53.5452 35.6251 53.7071C35.8068 53.8689 36.0532 53.9599 36.3102 53.9599H49.8748C50.1318 53.9599 50.3782 53.8689 50.5599 53.7071C50.7417 53.5452 50.8437 53.3256 50.8437 53.0967V37.4002C51.4101 37.2244 51.901 36.8959 52.2484 36.4604C52.5958 36.0248 52.7825 35.5037 52.7825 34.9694C52.7825 34.4351 52.5958 33.914 52.2484 33.4784C51.901 33.0428 51.4101 32.7144 50.8437 32.5386V30.0293L53.6119 25.9187C53.7025 25.7844 53.7504 25.6308 53.7504 25.4741V10.7996C53.7504 10.1128 53.4442 9.45416 52.8991 8.96852C52.354 8.48287 51.6146 8.21004 50.8437 8.21004ZM48.9059 52.2335H37.2791V37.559H48.9059V52.2335ZM49.8748 35.8326H36.3102C36.0532 35.8326 35.8068 35.7416 35.6251 35.5798C35.4434 35.4179 35.3413 35.1983 35.3413 34.9694C35.3413 34.7404 35.4434 34.5209 35.6251 34.359C35.8068 34.1971 36.0532 34.1062 36.3102 34.1062H49.8748C50.1318 34.1062 50.3782 34.1971 50.5599 34.359C50.7417 34.5209 50.8437 34.7404 50.8437 34.9694C50.8437 35.1983 50.7417 35.4179 50.5599 35.5798C50.3782 35.7416 50.1318 35.8326 49.8748 35.8326ZM51.8126 25.235L49.0445 29.3456C48.9539 29.4798 48.906 29.6335 48.9059 29.7902V32.3798H37.2791V29.7902C37.279 29.6335 37.2311 29.4798 37.1405 29.3456L34.3724 25.235V15.9789C34.3724 15.7499 34.4745 15.5304 34.6562 15.3685C34.8379 15.2066 35.0843 15.1157 35.3413 15.1157C35.5982 15.1157 35.8447 15.2066 36.0264 15.3685C36.2081 15.5304 36.3102 15.7499 36.3102 15.9789V19.4317C36.3102 19.6606 36.4123 19.8802 36.594 20.0421C36.7757 20.204 37.0221 20.2949 37.2791 20.2949C37.5361 20.2949 37.7825 20.204 37.9642 20.0421C38.1459 19.8802 38.248 19.6606 38.248 19.4317V7.34683C38.248 7.11789 38.3501 6.89833 38.5318 6.73645C38.7135 6.57457 38.9599 6.48363 39.2169 6.48363C39.4739 6.48363 39.7203 6.57457 39.902 6.73645C40.0837 6.89833 40.1858 7.11789 40.1858 7.34683V15.9789C40.1858 16.2078 40.2879 16.4274 40.4696 16.5893C40.6513 16.7511 40.8977 16.8421 41.1547 16.8421C41.4117 16.8421 41.6581 16.7511 41.8398 16.5893C42.0215 16.4274 42.1236 16.2078 42.1236 15.9789V4.75722C42.1236 4.52828 42.2257 4.30872 42.4074 4.14684C42.5891 3.98496 42.8355 3.89401 43.0925 3.89401C43.3495 3.89401 43.5959 3.98496 43.7776 4.14684C43.9593 4.30872 44.0614 4.52828 44.0614 4.75722V15.9789C44.0614 16.2078 44.1635 16.4274 44.3452 16.5893C44.5269 16.7511 44.7733 16.8421 45.0303 16.8421C45.2873 16.8421 45.5337 16.7511 45.7154 16.5893C45.8971 16.4274 45.9992 16.2078 45.9992 15.9789V7.34683C45.9992 7.11789 46.1013 6.89833 46.283 6.73645C46.4647 6.57457 46.7111 6.48363 46.9681 6.48363C47.2251 6.48363 47.4715 6.57457 47.6532 6.73645C47.8349 6.89833 47.937 7.11789 47.937 7.34683V15.9789C47.937 16.2078 48.0391 16.4274 48.2208 16.5893C48.4025 16.7511 48.649 16.8421 48.9059 16.8421C49.1629 16.8421 49.4093 16.7511 49.591 16.5893C49.7727 16.4274 49.8748 16.2078 49.8748 15.9789V10.7996C49.8748 10.5707 49.9769 10.3512 50.1586 10.1893C50.3403 10.0274 50.5868 9.93644 50.8437 9.93644C51.1007 9.93644 51.3471 10.0274 51.5288 10.1893C51.7106 10.3512 51.8126 10.5707 51.8126 10.7996V25.235Z" fill="#222222"/>
<path d="M27.5908 13.3893C27.2608 13.3888 26.9332 13.4385 26.6219 13.536V7.34683C26.6221 6.93243 26.5108 6.52402 26.2971 6.15593C26.0834 5.78783 25.7737 5.4708 25.394 5.23145C25.0143 4.99211 24.5756 4.83745 24.1149 4.78046C23.6542 4.72347 23.1848 4.76583 22.7463 4.90396V4.75722C22.7463 4.07041 22.44 3.41173 21.8949 2.92608C21.3498 2.44044 20.6105 2.1676 19.8396 2.1676C19.0687 2.1676 18.3293 2.44044 17.7842 2.92608C17.2391 3.41173 16.9329 4.07041 16.9329 4.75722V4.90396C16.4943 4.76583 16.025 4.72347 15.5642 4.78046C15.1035 4.83745 14.6649 4.99211 14.2852 5.23145C13.9054 5.4708 13.5957 5.78783 13.3821 6.15593C13.1684 6.52402 13.057 6.93243 13.0573 7.34683V8.35678C12.6187 8.21865 12.1494 8.17629 11.6886 8.23328C11.2279 8.29027 10.7893 8.44493 10.4095 8.68427C10.0298 8.92362 9.72012 9.24065 9.50645 9.60875C9.29279 9.97684 9.1814 10.3852 9.18164 10.7996V25.4741C9.18169 25.6291 9.22855 25.7811 9.31729 25.9144L12.0884 30.0318V32.5351C11.522 32.7119 11.0312 33.0411 10.684 33.4772C10.3368 33.9133 10.1503 34.4347 10.1503 34.9694C10.1503 35.504 10.3368 36.0255 10.684 36.4616C11.0312 36.8977 11.522 37.2269 12.0884 37.4036V53.0967C12.0884 53.3256 12.1904 53.5452 12.3721 53.7071C12.5538 53.8689 12.8003 53.9599 13.0573 53.9599H26.6219C26.8789 53.9599 27.1253 53.8689 27.307 53.7071C27.4887 53.5452 27.5908 53.3256 27.5908 53.0967V37.4036C28.1572 37.2269 28.6479 36.8977 28.9951 36.4616C29.3423 36.0255 29.5288 35.504 29.5288 34.9694C29.5288 34.4347 29.3423 33.9133 28.9951 33.4772C28.6479 33.0411 28.1572 32.7119 27.5908 32.5351V30.0318L30.3619 25.9144C30.4506 25.7811 30.4975 25.6291 30.4975 25.4741V15.9789C30.4952 15.2927 30.1882 14.6352 29.6436 14.15C29.099 13.6648 28.361 13.3913 27.5908 13.3893ZM25.653 52.2335H14.0262V37.559H25.653V52.2335ZM26.6219 35.8326H13.0573C12.8003 35.8326 12.5538 35.7416 12.3721 35.5798C12.1904 35.4179 12.0884 35.1983 12.0884 34.9694C12.0884 34.7404 12.1904 34.5209 12.3721 34.359C12.5538 34.1971 12.8003 34.1062 13.0573 34.1062H26.6219C26.8789 34.1062 27.1253 34.1971 27.307 34.359C27.4887 34.5209 27.5908 34.7404 27.5908 34.9694C27.5908 35.1983 27.4887 35.4179 27.307 35.5798C27.1253 35.7416 26.8789 35.8326 26.6219 35.8326ZM28.5597 25.2324L25.7886 29.3499C25.6999 29.4832 25.653 29.6352 25.653 29.7902V32.3798H14.0262V29.7902C14.0261 29.6352 13.9793 29.4832 13.8905 29.3499L11.1194 25.2324V10.7996C11.1194 10.5707 11.2215 10.3512 11.4032 10.1893C11.5849 10.0274 11.8314 9.93644 12.0884 9.93644C12.3453 9.93644 12.5918 10.0274 12.7735 10.1893C12.9552 10.3512 13.0573 10.5707 13.0573 10.7996V15.9789C13.0573 16.2078 13.1593 16.4274 13.341 16.5893C13.5227 16.7511 13.7692 16.8421 14.0262 16.8421C14.2831 16.8421 14.5296 16.7511 14.7113 16.5893C14.893 16.4274 14.9951 16.2078 14.9951 15.9789V7.34683C14.9951 7.11789 15.0971 6.89833 15.2788 6.73645C15.4606 6.57457 15.707 6.48363 15.964 6.48363C16.2209 6.48363 16.4674 6.57457 16.6491 6.73645C16.8308 6.89833 16.9329 7.11789 16.9329 7.34683V15.9789C16.9329 16.2078 17.0349 16.4274 17.2167 16.5893C17.3984 16.7511 17.6448 16.8421 17.9018 16.8421C18.1587 16.8421 18.4052 16.7511 18.5869 16.5893C18.7686 16.4274 18.8707 16.2078 18.8707 15.9789V4.75722C18.8707 4.52828 18.9728 4.30872 19.1545 4.14684C19.3362 3.98496 19.5826 3.89401 19.8396 3.89401C20.0965 3.89401 20.343 3.98496 20.5247 4.14684C20.7064 4.30872 20.8085 4.52828 20.8085 4.75722V15.9789C20.8085 16.2078 20.9106 16.4274 21.0923 16.5893C21.274 16.7511 21.5204 16.8421 21.7774 16.8421C22.0344 16.8421 22.2808 16.7511 22.4625 16.5893C22.6442 16.4274 22.7463 16.2078 22.7463 15.9789V7.34683C22.7463 7.11789 22.8484 6.89833 23.0301 6.73645C23.2118 6.57457 23.4582 6.48363 23.7152 6.48363C23.9722 6.48363 24.2186 6.57457 24.4003 6.73645C24.582 6.89833 24.6841 7.11789 24.6841 7.34683V19.4317C24.6841 19.6606 24.7862 19.8802 24.9679 20.0421C25.1496 20.204 25.396 20.2949 25.653 20.2949C25.91 20.2949 26.1564 20.204 26.3381 20.0421C26.5198 19.8802 26.6219 19.6606 26.6219 19.4317V15.9789C26.6219 15.7499 26.724 15.5304 26.9057 15.3685C27.0874 15.2066 27.3338 15.1157 27.5908 15.1157C27.8478 15.1157 28.0942 15.2066 28.2759 15.3685C28.4576 15.5304 28.5597 15.7499 28.5597 15.9789V25.2324Z" fill="#222222"/>
</svg>
