<svg width="374" height="59" viewBox="0 0 374 59" fill="none" xmlns="http://www.w3.org/2000/svg">
<path d="M9.71223 30.0281C4.34832 23.5845 5.41288 14.2507 12.09 9.18048V9.18048C18.7671 4.11024 28.5283 5.22354 33.8922 11.6671L47.1633 27.6094C52.5272 34.053 51.4627 43.3868 44.7855 48.4571V48.4571C38.1084 53.5273 28.3472 52.414 22.9833 45.9704L9.71223 30.0281Z" fill="#6CFFC1"/>
<path d="M35.5363 12.7179C40.2925 5.77317 49.9353 3.75865 57.0741 8.2184V8.2184C64.2128 12.6781 66.1443 21.9233 61.3881 28.8681L49.8531 45.711C45.0968 52.6557 35.4541 54.6703 28.3153 50.2105V50.2105C21.1765 45.7508 19.2451 36.5056 24.0013 29.5608L35.5363 12.7179Z" fill="#36B697"/>
<path d="M9.71223 30.0281C4.34832 23.5845 5.41288 14.2507 12.09 9.18048V9.18048C18.7671 4.11024 28.5283 5.22354 33.8922 11.6671L47.1633 27.6094C52.5272 34.053 51.4627 43.3868 44.7855 48.4571V48.4571C38.1084 53.5273 28.3472 52.414 22.9833 45.9704L9.71223 30.0281Z" fill="#6CFFC1"/>
<path d="M35.5363 12.7179C40.2925 5.77317 49.9353 3.75865 57.0741 8.2184V8.2184C64.2128 12.6781 66.1443 21.9233 61.3881 28.8681L49.8531 45.711C45.0968 52.6557 35.4541 54.6703 28.3153 50.2105V50.2105C21.1765 45.7508 19.2451 36.5056 24.0013 29.5608L35.5363 12.7179Z" fill="#36B697"/>
<path d="M9.71223 30.0281C4.34832 23.5845 5.41288 14.2507 12.09 9.18048V9.18048C18.7671 4.11024 28.5283 5.22354 33.8922 11.6671L47.1633 27.6094C52.5272 34.053 51.4627 43.3868 44.7855 48.4571V48.4571C38.1084 53.5273 28.3472 52.414 22.9833 45.9704L9.71223 30.0281Z" fill="#6CFFC1"/>
<path d="M35.5363 12.7179C40.2925 5.77317 49.9353 3.75865 57.0741 8.2184V8.2184C64.2128 12.6781 66.1443 21.9233 61.3881 28.8681L49.8531 45.711C45.0968 52.6557 35.4541 54.6703 28.3153 50.2105V50.2105C21.1765 45.7508 19.2451 36.5056 24.0013 29.5608L35.5363 12.7179Z" fill="#36B697"/>
<path d="M9.71223 30.0281C4.34832 23.5845 5.41288 14.2507 12.09 9.18048V9.18048C18.7671 4.11024 28.5283 5.22354 33.8922 11.6671L47.1633 27.6094C52.5272 34.053 51.4627 43.3868 44.7855 48.4571V48.4571C38.1084 53.5273 28.3472 52.414 22.9833 45.9704L9.71223 30.0281Z" fill="#6CFFC1"/>
<path d="M35.5363 12.7179C40.2925 5.77317 49.9353 3.75865 57.0741 8.2184V8.2184C64.2128 12.6781 66.1443 21.9233 61.3881 28.8681L49.8531 45.711C45.0968 52.6557 35.4541 54.6703 28.3153 50.2105V50.2105C21.1765 45.7508 19.2451 36.5056 24.0013 29.5608L35.5363 12.7179Z" fill="#36B697"/>
<path d="M9.71223 30.0281C4.34832 23.5845 5.41288 14.2507 12.09 9.18048V9.18048C18.7671 4.11024 28.5283 5.22354 33.8922 11.6671L47.1633 27.6094C52.5272 34.053 51.4627 43.3868 44.7855 48.4571V48.4571C38.1084 53.5273 28.3472 52.414 22.9833 45.9704L9.71223 30.0281Z" fill="#6CFFC1"/>
<path d="M35.5363 12.7179C40.2925 5.77317 49.9353 3.75865 57.0741 8.2184V8.2184C64.2128 12.6781 66.1443 21.9233 61.3881 28.8681L49.8531 45.711C45.0968 52.6557 35.4541 54.6703 28.3153 50.2105V50.2105C21.1765 45.7508 19.2451 36.5056 24.0013 29.5608L35.5363 12.7179Z" fill="#36B697"/>
<path d="M9.71223 30.0281C4.34832 23.5845 5.41288 14.2507 12.09 9.18048V9.18048C18.7671 4.11024 28.5283 5.22354 33.8922 11.6671L47.1633 27.6094C52.5272 34.053 51.4627 43.3868 44.7855 48.4571V48.4571C38.1084 53.5273 28.3472 52.414 22.9833 45.9704L9.71223 30.0281Z" fill="#6CFFC1"/>
<path d="M35.5363 12.7179C40.2925 5.77317 49.9353 3.75865 57.0741 8.2184V8.2184C64.2128 12.6781 66.1443 21.9233 61.3881 28.8681L49.8531 45.711C45.0968 52.6557 35.4541 54.6703 28.3153 50.2105V50.2105C21.1765 45.7508 19.2451 36.5056 24.0013 29.5608L35.5363 12.7179Z" fill="#36B697"/>
<path d="M9.71223 30.0281C4.34832 23.5845 5.41288 14.2507 12.09 9.18048V9.18048C18.7671 4.11024 28.5283 5.22354 33.8922 11.6671L47.1633 27.6094C52.5272 34.053 51.4627 43.3868 44.7855 48.4571V48.4571C38.1084 53.5273 28.3472 52.414 22.9833 45.9704L9.71223 30.0281Z" fill="#6CFFC1"/>
<path d="M35.5363 12.7179C40.2925 5.77317 49.9353 3.75865 57.0741 8.2184V8.2184C64.2128 12.6781 66.1443 21.9233 61.3881 28.8681L49.8531 45.711C45.0968 52.6557 35.4541 54.6703 28.3153 50.2105V50.2105C21.1765 45.7508 19.2451 36.5056 24.0013 29.5608L35.5363 12.7179Z" fill="#36B697"/>
<path d="M9.71223 30.0281C4.34832 23.5845 5.41288 14.2507 12.09 9.18048V9.18048C18.7671 4.11024 28.5283 5.22354 33.8922 11.6671L47.1633 27.6094C52.5272 34.053 51.4627 43.3868 44.7855 48.4571V48.4571C38.1084 53.5273 28.3472 52.414 22.9833 45.9704L9.71223 30.0281Z" fill="#75DCEA"/>
<path d="M35.5363 12.7179C40.2925 5.77317 49.9353 3.75865 57.0741 8.2184V8.2184C64.2128 12.6781 66.1443 21.9233 61.3881 28.8681L49.8531 45.711C45.0968 52.6557 35.4541 54.6703 28.3153 50.2105V50.2105C21.1765 45.7508 19.2451 36.5056 24.0013 29.5608L35.5363 12.7179Z" fill="#2A8895"/>
<path d="M78.36 47V13.4H94.248C97.96 13.4 101.224 14.088 104.04 15.464C106.856 16.84 109.048 18.776 110.616 21.272C112.216 23.768 113.016 26.744 113.016 30.2C113.016 33.624 112.216 36.6 110.616 39.128C109.048 41.624 106.856 43.56 104.04 44.936C101.224 46.312 97.96 47 94.248 47H78.36ZM87.864 39.416H93.864C95.784 39.416 97.448 39.064 98.856 38.36C100.296 37.624 101.416 36.568 102.216 35.192C103.016 33.784 103.416 32.12 103.416 30.2C103.416 28.248 103.016 26.584 102.216 25.208C101.416 23.832 100.296 22.792 98.856 22.088C97.448 21.352 95.784 20.984 93.864 20.984H87.864V39.416ZM118.064 47V20.984H126.752V28.568L125.456 26.408C126.224 24.456 127.472 23 129.2 22.04C130.928 21.048 133.024 20.552 135.488 20.552V28.76C135.072 28.696 134.704 28.664 134.384 28.664C134.096 28.632 133.776 28.616 133.424 28.616C131.568 28.616 130.064 29.128 128.912 30.152C127.76 31.144 127.184 32.776 127.184 35.048V47H118.064ZM143.197 47.432C141.661 47.432 140.365 46.92 139.309 45.896C138.253 44.872 137.725 43.576 137.725 42.008C137.725 40.376 138.253 39.08 139.309 38.12C140.365 37.128 141.661 36.632 143.197 36.632C144.733 36.632 146.029 37.128 147.085 38.12C148.141 39.08 148.669 40.376 148.669 42.008C148.669 43.576 148.141 44.872 147.085 45.896C146.029 46.92 144.733 47.432 143.197 47.432Z" fill="#2A8895"/>
<path d="M155.015 47V13.4H160.151L174.839 37.928H172.151L186.599 13.4H191.735L191.783 47H185.879L185.831 22.664H187.079L174.791 43.16H172.007L159.527 22.664H160.967V47H155.015ZM216.554 47V41.816L216.218 40.712V31.64C216.218 29.88 215.69 28.52 214.634 27.56C213.578 26.568 211.978 26.072 209.834 26.072C208.394 26.072 206.97 26.296 205.562 26.744C204.186 27.192 203.018 27.816 202.058 28.616L199.706 24.248C201.082 23.192 202.714 22.408 204.602 21.896C206.522 21.352 208.506 21.08 210.554 21.08C214.266 21.08 217.13 21.976 219.146 23.768C221.194 25.528 222.218 28.264 222.218 31.976V47H216.554ZM208.49 47.336C206.57 47.336 204.89 47.016 203.45 46.376C202.01 45.704 200.89 44.792 200.09 43.64C199.322 42.456 198.938 41.128 198.938 39.656C198.938 38.216 199.274 36.92 199.946 35.768C200.65 34.616 201.786 33.704 203.354 33.032C204.922 32.36 207.002 32.024 209.594 32.024H217.034V36.008H210.026C207.978 36.008 206.602 36.344 205.898 37.016C205.194 37.656 204.842 38.456 204.842 39.416C204.842 40.504 205.274 41.368 206.138 42.008C207.002 42.648 208.202 42.968 209.738 42.968C211.21 42.968 212.522 42.632 213.674 41.96C214.858 41.288 215.706 40.296 216.218 38.984L217.226 42.584C216.65 44.088 215.61 45.256 214.106 46.088C212.634 46.92 210.762 47.336 208.49 47.336ZM244.942 21.08C246.99 21.08 248.814 21.48 250.414 22.28C252.046 23.08 253.326 24.312 254.254 25.976C255.182 27.608 255.646 29.72 255.646 32.312V47H249.646V33.08C249.646 30.808 249.102 29.112 248.014 27.992C246.958 26.872 245.47 26.312 243.55 26.312C242.142 26.312 240.894 26.6 239.806 27.176C238.718 27.752 237.87 28.616 237.262 29.768C236.686 30.888 236.398 32.312 236.398 34.04V47H230.398V21.368H236.11V28.28L235.102 26.168C235.998 24.536 237.294 23.288 238.99 22.424C240.718 21.528 242.702 21.08 244.942 21.08ZM279.53 47V41.816L279.194 40.712V31.64C279.194 29.88 278.666 28.52 277.61 27.56C276.554 26.568 274.954 26.072 272.81 26.072C271.37 26.072 269.946 26.296 268.538 26.744C267.162 27.192 265.994 27.816 265.034 28.616L262.682 24.248C264.058 23.192 265.69 22.408 267.578 21.896C269.498 21.352 271.482 21.08 273.53 21.08C277.242 21.08 280.106 21.976 282.122 23.768C284.17 25.528 285.194 28.264 285.194 31.976V47H279.53ZM271.466 47.336C269.546 47.336 267.866 47.016 266.426 46.376C264.986 45.704 263.866 44.792 263.066 43.64C262.298 42.456 261.914 41.128 261.914 39.656C261.914 38.216 262.25 36.92 262.922 35.768C263.626 34.616 264.762 33.704 266.33 33.032C267.898 32.36 269.978 32.024 272.57 32.024H280.01V36.008H273.002C270.954 36.008 269.578 36.344 268.874 37.016C268.17 37.656 267.818 38.456 267.818 39.416C267.818 40.504 268.25 41.368 269.114 42.008C269.978 42.648 271.178 42.968 272.714 42.968C274.186 42.968 275.498 42.632 276.65 41.96C277.834 41.288 278.682 40.296 279.194 38.984L280.202 42.584C279.626 44.088 278.586 45.256 277.082 46.088C275.61 46.92 273.738 47.336 271.466 47.336ZM305.037 56.648C302.669 56.648 300.349 56.328 298.077 55.688C295.837 55.08 293.997 54.184 292.557 53L295.245 48.488C296.365 49.416 297.773 50.152 299.469 50.696C301.197 51.272 302.941 51.56 304.701 51.56C307.517 51.56 309.581 50.904 310.893 49.592C312.205 48.312 312.861 46.376 312.861 43.784V39.224L313.341 33.416L313.149 27.608V21.368H318.861V43.112C318.861 47.752 317.677 51.16 315.309 53.336C312.941 55.544 309.517 56.648 305.037 56.648ZM304.269 45.848C301.837 45.848 299.629 45.336 297.645 44.312C295.693 43.256 294.141 41.8 292.989 39.944C291.869 38.088 291.309 35.912 291.309 33.416C291.309 30.952 291.869 28.792 292.989 26.936C294.141 25.08 295.693 23.64 297.645 22.616C299.629 21.592 301.837 21.08 304.269 21.08C306.445 21.08 308.397 21.512 310.125 22.376C311.853 23.24 313.229 24.584 314.253 26.408C315.309 28.232 315.837 30.568 315.837 33.416C315.837 36.264 315.309 38.616 314.253 40.472C313.229 42.296 311.853 43.656 310.125 44.552C308.397 45.416 306.445 45.848 304.269 45.848ZM305.181 40.76C306.685 40.76 308.029 40.456 309.213 39.848C310.397 39.208 311.309 38.344 311.949 37.256C312.621 36.136 312.957 34.856 312.957 33.416C312.957 31.976 312.621 30.712 311.949 29.624C311.309 28.504 310.397 27.656 309.213 27.08C308.029 26.472 306.685 26.168 305.181 26.168C303.677 26.168 302.317 26.472 301.101 27.08C299.917 27.656 298.989 28.504 298.317 29.624C297.677 30.712 297.357 31.976 297.357 33.416C297.357 34.856 297.677 36.136 298.317 37.256C298.989 38.344 299.917 39.208 301.101 39.848C302.317 40.456 303.677 40.76 305.181 40.76ZM339.277 47.336C336.429 47.336 333.933 46.776 331.789 45.656C329.677 44.504 328.029 42.936 326.845 40.952C325.693 38.968 325.117 36.712 325.117 34.184C325.117 31.624 325.677 29.368 326.797 27.416C327.949 25.432 329.517 23.88 331.501 22.76C333.517 21.64 335.805 21.08 338.365 21.08C340.861 21.08 343.085 21.624 345.037 22.712C346.989 23.8 348.525 25.336 349.645 27.32C350.765 29.304 351.325 31.64 351.325 34.328C351.325 34.584 351.309 34.872 351.277 35.192C351.277 35.512 351.261 35.816 351.229 36.104H329.869V32.12H348.061L345.709 33.368C345.741 31.896 345.437 30.6 344.797 29.48C344.157 28.36 343.277 27.48 342.157 26.84C341.069 26.2 339.805 25.88 338.365 25.88C336.893 25.88 335.597 26.2 334.477 26.84C333.389 27.48 332.525 28.376 331.885 29.528C331.277 30.648 330.973 31.976 330.973 33.512V34.472C330.973 36.008 331.325 37.368 332.029 38.552C332.733 39.736 333.725 40.648 335.005 41.288C336.285 41.928 337.757 42.248 339.421 42.248C340.861 42.248 342.157 42.024 343.309 41.576C344.461 41.128 345.485 40.424 346.381 39.464L349.597 43.16C348.445 44.504 346.989 45.544 345.229 46.28C343.501 46.984 341.517 47.336 339.277 47.336ZM357.569 47V21.368H363.281V28.424L362.609 26.36C363.377 24.632 364.577 23.32 366.209 22.424C367.873 21.528 369.937 21.08 372.401 21.08V26.792C372.145 26.728 371.905 26.696 371.681 26.696C371.457 26.664 371.233 26.648 371.009 26.648C368.737 26.648 366.929 27.32 365.585 28.664C364.241 29.976 363.569 31.944 363.569 34.568V47H357.569Z" fill="#212121"/>
</svg>
