<svg width="69" height="69" viewBox="0 0 69 69" fill="none" xmlns="http://www.w3.org/2000/svg">
<circle cx="34.4903" cy="23.3529" r="10.1655" stroke="#33363F" stroke-width="2.21794" stroke-linecap="round"/>
<path d="M42.2207 22.4981C43.195 20.8107 44.7997 19.5793 46.6818 19.075C48.5639 18.5707 50.5693 18.8347 52.2568 19.809C53.9443 20.7832 55.1756 22.3879 55.6799 24.2701C56.1842 26.1522 55.9202 28.1576 54.9459 29.845C53.9717 31.5325 52.367 32.7638 50.4848 33.2682C48.6027 33.7725 46.5973 33.5085 44.9099 32.5342C43.2224 31.5599 41.9911 29.9552 41.4867 28.0731C40.9824 26.191 41.2464 24.1856 42.2207 22.4981L42.2207 22.4981Z" stroke="#33363F" stroke-width="2.21794"/>
<path d="M14.0342 22.4981C15.0084 20.8107 16.6132 19.5793 18.4953 19.075C20.3774 18.5707 22.3828 18.8347 24.0703 19.809C25.7577 20.7832 26.9891 22.3879 27.4934 24.2701C27.9977 26.1522 27.7337 28.1576 26.7594 29.845C25.7852 31.5325 24.1805 32.7638 22.2983 33.2682C20.4162 33.7725 18.4108 33.5085 16.7233 32.5342C15.0359 31.5599 13.8045 29.9552 13.3002 28.0731C12.7959 26.191 13.0599 24.1856 14.0342 22.4981L14.0342 22.4981Z" stroke="#33363F" stroke-width="2.21794"/>
<path d="M48.2495 51.5393L47.1624 51.7582L47.3416 52.6482H48.2495V51.5393ZM59.6192 50.3116L58.5403 50.5682V50.5682L59.6192 50.3116ZM42.3281 42.2675L41.6574 41.3844L40.3748 42.3586L41.7424 43.2092L42.3281 42.2675ZM58.6014 50.4303H48.2495V52.6482H58.6014V50.4303ZM58.5403 50.5682C58.5381 50.5588 58.536 50.5372 58.5427 50.5104C58.5489 50.4854 58.56 50.4665 58.5704 50.454C58.5915 50.4291 58.6091 50.4303 58.6014 50.4303V52.6482C59.908 52.6482 61.0354 51.4735 60.698 50.055L58.5403 50.5682ZM48.5832 41.3737C52.1089 41.3737 54.3918 42.9521 55.9105 44.879C57.4598 46.8446 58.2098 49.1788 58.5403 50.5682L60.698 50.055C60.3336 48.5226 59.4868 45.8333 57.6524 43.506C55.7875 41.1399 52.8999 39.1558 48.5832 39.1558V41.3737ZM42.9989 43.1506C44.3752 42.1052 46.1799 41.3737 48.5832 41.3737V39.1558C45.6877 39.1558 43.4133 40.0506 41.6574 41.3844L42.9989 43.1506ZM41.7424 43.2092C45.2607 45.3973 46.6339 49.1344 47.1624 51.7582L49.3366 51.3203C48.7597 48.4556 47.1964 43.9894 42.9138 41.3258L41.7424 43.2092Z" fill="#33363F"/>
<path d="M26.6519 42.2674L27.2376 43.2091L28.6053 42.3585L27.3227 41.3843L26.6519 42.2674ZM9.36096 50.3116L10.4398 50.5682H10.4398L9.36096 50.3116ZM20.7304 51.5393V52.6482H21.6383L21.8176 51.7582L20.7304 51.5393ZM20.397 41.3737C22.8002 41.3737 24.6049 42.1052 25.9812 43.1505L27.3227 41.3843C25.5668 40.0506 23.2925 39.1558 20.397 39.1558V41.3737ZM10.4398 50.5682C10.7703 49.1788 11.5203 46.8446 13.0696 44.879C14.5884 42.9521 16.8713 41.3737 20.397 41.3737V39.1558C16.0803 39.1558 13.1927 41.1399 11.3277 43.506C9.49339 45.8333 8.64657 48.5226 8.28209 50.055L10.4398 50.5682ZM10.3787 50.4303C10.371 50.4303 10.3887 50.4291 10.4097 50.454C10.4202 50.4665 10.4313 50.4854 10.4375 50.5104C10.4441 50.5372 10.4421 50.5588 10.4398 50.5682L8.28209 50.055C7.94471 51.4735 9.07209 52.6482 10.3787 52.6482V50.4303ZM20.7304 50.4303H10.3787V52.6482H20.7304V50.4303ZM21.8176 51.7582C22.346 49.1344 23.7193 45.3972 27.2376 43.2091L26.0663 41.3257C21.7835 43.9893 20.2203 48.4556 19.6433 51.3203L21.8176 51.7582Z" fill="#33363F"/>
<path d="M34.4896 40.2648C46.168 40.2648 48.169 49.9422 48.5119 53.2585C48.5749 53.8677 48.0863 54.3579 47.4738 54.3579H21.5055C20.893 54.3579 20.4044 53.8677 20.4674 53.2585C20.8102 49.9422 22.8112 40.2648 34.4896 40.2648Z" stroke="#33363F" stroke-width="2.21794" stroke-linecap="round"/>
</svg>
