<svg width="62" height="62" viewBox="0 0 62 62" fill="none" xmlns="http://www.w3.org/2000/svg">
<path d="M14.5312 23.7344C14.5312 32.7922 21.9422 40.2031 31 40.2031C40.0578 40.2031 47.4688 32.7922 47.4688 23.7344C47.4688 14.6766 40.0578 7.26562 31 7.26562C21.9422 7.26562 14.5312 14.6766 14.5312 23.7344ZM43.5938 23.7344C43.5938 30.6609 37.9266 36.3281 31 36.3281C24.0734 36.3281 18.4062 30.6609 18.4062 23.7344C18.4062 16.8078 24.0734 11.1406 31 11.1406C37.9266 11.1406 43.5938 16.8078 43.5938 23.7344Z" fill="#2A8995"/>
<path d="M11.8186 57.8344C16.9529 52.7 23.7342 49.8906 30.9998 49.8906C38.2654 49.8906 45.0467 52.7 50.181 57.8344L52.942 55.0734C47.0811 49.2609 39.2826 46.0156 30.9998 46.0156C22.717 46.0156 14.9186 49.2609 9.05762 55.0734L11.8186 57.8344Z" fill="#2A8995"/>
</svg>
