<svg width="214" height="214" viewBox="0 0 214 214" fill="none" xmlns="http://www.w3.org/2000/svg">
<path d="M107 186.916C62.8621 186.916 27.084 151.138 27.084 107C27.084 62.8626 62.8621 27.0845 107 27.0845C151.137 27.0845 186.915 62.8626 186.915 107C186.915 151.138 151.137 186.916 107 186.916ZM107 35.7782C67.8777 35.7782 35.7778 67.8782 35.7778 107C35.7778 146.122 67.8777 178.222 107 178.222C146.121 178.222 178.221 146.122 178.221 107C178.221 67.8782 146.121 35.7782 107 35.7782Z" fill="#134563" fill-opacity="0.71"/>
<path d="M60.1871 164.847L52.1621 161.169C54.5027 155.485 61.859 152.475 70.2183 148.797C78.2433 145.119 88.2746 140.772 88.2746 135.422V128.066C85.2652 125.725 80.5839 120.375 79.9152 112.685C77.5746 110.344 73.8965 105.997 73.8965 100.647C73.8965 97.3033 75.234 94.6283 76.2371 92.9564C75.5683 89.2783 74.2308 81.922 74.2308 76.2377C74.2308 57.847 86.9371 45.8096 107 45.8096C112.684 45.8096 119.706 47.4814 123.384 51.4939C132.412 53.1658 139.768 63.8658 139.768 76.2377C139.768 84.2627 138.431 90.9502 137.428 93.9595C138.431 95.6314 139.434 97.972 139.434 100.647C139.434 107 136.425 111.013 133.415 113.019C132.746 120.71 128.4 125.725 125.725 128.066V135.422C125.725 140.103 134.084 143.113 141.775 146.122C150.803 149.466 160.165 152.81 163.175 160.5L154.815 163.51C153.478 159.497 145.453 156.822 138.765 154.147C128.4 150.469 116.696 146.122 116.696 135.422V123.385L118.703 122.047C119.037 122.047 124.721 118.035 124.721 110.344V107.335L127.396 106.331C127.731 105.997 130.406 104.66 130.406 100.647C130.406 99.3096 129.403 97.972 129.068 97.6376L127.396 95.6314L128.065 93.2908C128.065 93.2908 130.406 85.9345 130.406 75.9033C130.406 67.5439 125.725 59.8533 120.709 59.8533H118.034L116.696 57.5127C115.693 55.8408 111.681 54.1689 106.331 54.1689C91.284 54.1689 82.2559 62.1939 82.2559 75.9033C82.2559 82.2564 84.5965 92.622 84.5965 92.622L85.2652 94.9626L83.5933 96.6345C83.5933 96.6345 82.2559 98.3064 82.2559 99.9783C82.2559 102.319 85.2652 105.328 86.6027 106.666L88.2746 108.003V110.344C88.2746 117.7 94.6277 121.713 94.6277 121.713L96.6339 123.05V135.088C96.6339 146.122 84.2621 151.806 73.2277 156.488C68.5464 159.163 61.5246 162.506 60.1871 164.847Z" fill="#134563" fill-opacity="0.71"/>
</svg>
